HIERARCHY
ROOT Hips
{
    OFFSET 0.000000 0.000000 0.000000
    CHANNELS 6 Xposition Yposition Zposition Zrotation Xrotation Yrotation
    JOINT Spine
    {
        OFFSET -0.000000 7.750029 0.000000
        CHANNELS 3 Zrotation Xrotation Yrotation
        JOINT Spine1
        {
            OFFSET -0.000000 19.767460 0.000000
            CHANNELS 3 Zrotation Xrotation Yrotation
            JOINT Neck
            {
                OFFSET -0.000000 19.686279 1.789662
                CHANNELS 3 Zrotation Xrotation Yrotation
                JOINT Head
                {
                    OFFSET -0.000000 13.231757 -1.890251
                    CHANNELS 3 Zrotation Xrotation Yrotation
                    End Site
                    {
                        OFFSET -0.000000 23.628138 0.000000
                    }
                }
            }
            JOINT LeftShoulder
            {
                OFFSET 3.736819 16.910755 -0.280982
                CHANNELS 3 Zrotation Xrotation Yrotation
                JOINT LeftArm
                {
                    OFFSET 13.626117 0.000000 0.000000
                    CHANNELS 3 Zrotation Xrotation Yrotation
                    JOINT LeftForeArm
                    {
                        OFFSET 31.364786 0.000000 0.000000
                        CHANNELS 3 Zrotation Xrotation Yrotation
                        JOINT LeftHand
                        {
                            OFFSET 23.389509 0.000000 0.000000
                            CHANNELS 3 Zrotation Xrotation Yrotation
                            End Site
                            {
                                OFFSET 14.176883 0.000000 0.000000
                            }
                        }
                    }
                }
            }
            JOINT RightShoulder
            {
                OFFSET -3.821718 16.910755 -0.280982
                CHANNELS 3 Zrotation Xrotation Yrotation
                JOINT RightArm
                {
                    OFFSET -13.626117 0.000000 0.000000
                    CHANNELS 3 Zrotation Xrotation Yrotation
                    JOINT RightForeArm
                    {
                        OFFSET -31.364786 0.000000 0.000000
                        CHANNELS 3 Zrotation Xrotation Yrotation
                        JOINT RightHand
                        {
                            OFFSET -23.389509 0.000000 0.000000
                            CHANNELS 3 Zrotation Xrotation Yrotation
                            End Site
                            {
                                OFFSET -14.176883 0.000000 0.000000
                            }
                        }
                    }
                }
            }
        }
    }
    JOINT LeftUpLeg
    {
        OFFSET 9.451255 0.000000 0.000000
        CHANNELS 3 Zrotation Xrotation Yrotation
        JOINT LeftLeg
        {
            OFFSET -0.000000 -41.898624 0.000000
            CHANNELS 3 Zrotation Xrotation Yrotation
            JOINT LeftFoot
            {
                OFFSET -0.000000 -38.481331 0.000000
                CHANNELS 3 Zrotation Xrotation Yrotation
                JOINT LeftToeBase
                {
                    OFFSET -0.000000 -6.143315 14.176883
                    CHANNELS 3 Zrotation Xrotation Yrotation
                    End Site
                    {
                        OFFSET -0.000000 0.000000 3.780502
                    }
                }
            }
        }
    }
    JOINT RightUpLeg
    {
        OFFSET -9.451255 0.000000 0.000000
        CHANNELS 3 Zrotation Xrotation Yrotation
        JOINT RightLeg
        {
            OFFSET -0.000000 -41.898624 0.000000
            CHANNELS 3 Zrotation Xrotation Yrotation
            JOINT RightFoot
            {
                OFFSET -0.000000 -38.481331 0.000000
                CHANNELS 3 Zrotation Xrotation Yrotation
                JOINT RightToeBase
                {
                    OFFSET -0.000000 -6.143315 14.176883
                    CHANNELS 3 Zrotation Xrotation Yrotation
                    End Site
                    {
                        OFFSET -0.000000 0.000000 3.780502
                    }
                }
            }
        }
    }
}
MOTION
Frames:    7
Frame Time:    0.010000
-3.071829    91.104820    115.355896    -1.214011    2.526030    179.592957    -0.418659    -3.793028    0.363823    0.968487    4.439182    0.340184    -4.517062    38.554138    3.382919    -2.357212    -26.757046    1.625702    9.487302    4.686672    -4.787837    -75.461174    53.616371    -13.843905    9.257289    -14.347835    -13.820333    -17.460890    -12.535507    -4.809833    -9.873258    6.901093    -0.560863    73.288307    46.647026    21.002087    -5.690298    -11.399422    9.091018    12.438223    -10.529025    3.979522    1.216381    1.755039    -1.717505    -2.810426    7.397732    -6.201711    -1.339522    -9.036087    20.619164    0.000000    0.000000    0.000000    -3.936210    3.068609    6.049689    2.893648    6.979205    12.595242    -2.173379    -9.516483    -27.533546    0.000000    0.000000    0.000000    
-3.078869    91.105690    115.357529    -1.219267    2.532229    179.601685    -0.422219    -3.788351    0.363722    0.969786    4.442137    0.340070    -4.475676    38.584450    3.360288    -2.427143    -26.800295    1.583422    9.489918    4.682981    -4.803727    -75.488991    53.597000    -13.823610    9.235110    -14.324188    -13.799874    -17.426174    -12.504842    -4.893696    -9.874329    6.895276    -0.553791    73.282806    46.652409    20.993729    -5.694432    -11.422849    9.114102    12.434374    -10.552979    3.962868    1.204714    1.758702    -1.731263    -2.805555    7.400934    -6.199245    -0.869741    -8.716657    20.444073    0.000000    0.000000    0.000000    -3.952335    3.077770    6.086736    2.920530    6.959268    12.522943    -2.226573    -9.465046    -27.500048    0.000000    0.000000    0.000000    
-3.083542    91.103836    115.357521    -1.222516    2.527981    179.615646    -0.425523    -3.793147    0.352953    0.965570    4.448406    0.329552    -4.429584    38.609035    3.365022    -2.505144    -26.853413    1.567733    9.496302    4.672910    -4.791448    -75.533623    53.617535    -13.796197    9.279746    -14.285600    -13.771000    -17.453821    -12.459703    -4.907582    -9.860167    6.895016    -0.548936    73.263214    46.661224    21.000340    -5.719208    -11.421791    9.135844    12.447983    -10.550532    3.943355    1.198291    1.745912    -1.721437    -2.799878    7.414138    -6.221811    -1.331299    -9.028477    20.594736    0.000000    0.000000    0.000000    -3.952539    3.078013    6.088832    2.907634    6.954684    12.495733    -2.218782    -9.439132    -27.471954    0.000000    0.000000    0.000000    
-3.088330    91.103661    115.355743    -1.220459    2.539699    179.622330    -0.423860    -3.786098    0.351833    0.969750    4.447767    0.328356    -4.474306    38.650509    3.362453    -2.430533    -26.916788    1.579036    9.498973    4.678427    -4.789438    -75.550598    53.586147    -13.792262    9.264130    -14.325839    -13.804760    -17.415627    -12.511435    -4.838103    -9.870033    6.889886    -0.536751    73.293655    46.644600    20.961906    -5.727352    -11.422606    9.174531    12.431225    -10.548076    3.955270    1.203240    1.758550    -1.705591    -2.801446    7.417270    -6.248522    -1.313423    -9.029835    20.577829    0.000000    0.000000    0.000000    -3.953460    3.099132    6.106365    2.917649    6.926525    12.454789    -2.280137    -9.415809    -27.478628    0.000000    0.000000    0.000000    
-3.096381    91.105003    115.358650    -1.219996    2.530471    179.623901    -0.400326    -3.800586    0.353094    0.941968    4.460079    0.329804    -4.463885    38.620552    3.378817    -2.466602    -26.878307    1.587394    9.500835    4.666835    -4.785465    -75.872063    53.715302    -13.460339    9.731484    -14.741580    -13.857067    -17.747082    -12.824405    -5.048256    -9.862306    6.904020    -0.544276    73.232140    46.667427    21.027336    -5.716969    -11.432924    9.182823    12.425382    -10.560733    3.939448    1.192127    1.749365    -1.707064    -2.794548    7.414130    -6.266300    -1.337250    -9.035511    20.625521    0.000000    0.000000    0.000000    -3.952373    3.091084    6.092284    2.907108    6.934159    12.442049    -2.209642    -9.443671    -27.458097    0.000000    0.000000    0.000000    
-3.081273    91.092697    115.360466    -1.169892    2.594538    179.654831    -0.378545    -3.698312    0.343038    0.970265    4.423875    0.317993    -4.503269    38.681923    3.368212    -2.390960    -26.988432    1.590073    9.503928    4.697748    -4.773626    -75.484222    53.599430    -13.873607    9.238240    -14.371625    -13.786504    -17.418364    -12.549950    -4.918379    -9.852108    6.888472    -0.555812    73.239113    46.675335    20.999586    -5.728488    -11.457668    9.204181    12.414950    -10.580574    3.970892    1.272236    1.801104    -1.696329    -2.830567    7.431163    -6.226979    -0.827683    -8.799964    20.368042    0.000000    0.000000    0.000000    -3.871978    3.161936    6.034172    2.867637    6.927347    12.450276    -2.191498    -9.443565    -27.423119    0.000000    0.000000    0.000000    
-3.104044    91.104492    115.357910    -1.224748    2.524505    179.636093    -0.384029    -3.798250    0.352974    0.922876    4.449370    0.329863    -4.537263    38.632023    3.398534    -2.364221    -26.906780    1.627872    9.505804    4.675806    -4.767558    -75.536270    53.596527    -13.818291    9.231537    -14.314013    -13.807239    -17.409073    -12.493872    -4.902072    -9.867364    6.898833    -0.538646    73.256935    46.675186    20.999994    -5.764554    -11.521205    9.194376    12.446456    -10.631820    4.055015    1.184888    1.746948    -1.742058    -2.803669    7.405153    -6.193911    -1.337856    -9.047825    20.567537    0.000000    0.000000    0.000000    -3.957357    3.096184    6.070324    2.892119    6.900189    12.396418    -2.262774    -9.395578    -27.374708    0.000000    0.000000    0.000000    
